# xmcd
#
# Track frame offsets: 
#        150
#        22953
#        42195
#        60063
#        83830
#        99787
#
# Disc length: 1598 seconds
#
# Revision: 0
# Processed by: cddbd v1.5.2PL0 Copyright (c) Steve Scherf et al.
# Submitted via: ExactAudioCopyFreeDBPlugin 1.0
#
DISCID=31063c06
DTITLE=Pene Kingsford - Calling From Waimanu
DYEAR=2008
DGENRE=New Zealand: Country/Blues
TTITLE0=Swan Song in G Major
TTITLE1=Until I Saw Your Smile
TTITLE2=No-One
TTITLE3=Seven Long Days
TTITLE4=Firefly
TTITLE5=You've Changed
EXTD=
EXTT0=
EXTT1=
EXTT2=
EXTT3=
EXTT4=
EXTT5=
PLAYORDER=
